<svg id="Layer_1" data-name="Layer 1" xmlns="http://www.w3.org/2000/svg" viewBox="0 0 716.32 716.32"><defs><style>.cls-1{fill:#f28a42;}</style></defs><title>播放</title><path class="cls-1" d="M257.72-185.44A25.67,25.67,0,0,0,270.6-163.2a25.83,25.83,0,0,0,25.76,0,25.67,25.67,0,0,0,12.88-22.24,25.66,25.66,0,0,0-12.88-22.24,25.83,25.83,0,0,0-25.76,0,25.66,25.66,0,0,0-12.88,22.24Zm0,0" transform="translate(309 308)"/><path class="cls-1" d="M-27.8,184.32a24.66,24.66,0,0,0,13-3.6L170,73a25.9,25.9,0,0,0,14.8-23.36A25.55,25.55,0,0,0,172,27.44L-8.68-77.84A25.25,25.25,0,0,0-27.8-86.56,25.55,25.55,0,0,0-53.24-60.88a8.89,8.89,0,0,0,.08,1.44l-.32.16.4,215.2c-.08.88-.16,1.76-.16,2.72A25.6,25.6,0,0,0-27.8,184.32Zm0,0" transform="translate(309 308)"/><path class="cls-1" d="M367.4-114.32a26.06,26.06,0,0,0-23.12-14.24,25.73,25.73,0,0,0-25.76,25.68,25.57,25.57,0,0,0,3.68,13.2l-.08.08A305.2,305.2,0,0,1,355.8,50.16c0,169.28-137.28,306.56-306.56,306.56S-257.4,219.44-257.4,50.16-120.12-256.32,49.16-256.32A305.51,305.51,0,0,1,188-223.12l.16-.32a25.53,25.53,0,0,0,12.56,3.28,25.73,25.73,0,0,0,25.76-25.68,25.69,25.69,0,0,0-15.44-23.52A356.16,356.16,0,0,0,49.16-308C-148.68-308-309-147.6-309,50.16S-148.68,408.32,49.16,408.32,407.32,248,407.32,50.16A356.56,356.56,0,0,0,367.4-114.32Zm0,0" transform="translate(309 308)"/></svg>