<svg xmlns="http://www.w3.org/2000/svg" viewBox="0 0 1929.28 442"><defs><style>.cls-1,.cls-2{fill:#232323;}.cls-1{stroke:#f7f7f7;stroke-miterlimit:10;}</style></defs><title>Asset 1</title><g id="Layer_2" data-name="Layer 2"><g id="Layer_1-2" data-name="Layer 1"><path class="cls-1" d="M504.5,360.61c0-59.24,50.2-89.86,165.16-102.41-.5-32.13-12-60.24-52.71-60.24-29.12,0-56.22,13.05-79.82,28.11l-21.59-39.16c28.61-18.07,67.27-36.14,111.44-36.14,68.77,0,100.4,43.67,100.4,117V433.9H680.2l-5-31.63h-1.51c-25.1,21.59-54.72,38.15-87.85,38.15C538.13,440.43,504.5,409.31,504.5,360.61Zm165.16,2V294.85c-81.83,10-109.44,30.62-109.44,61.75,0,27.11,18.57,38.15,43.17,38.15C627.49,394.75,647.07,383.2,669.66,362.62Z"/><path class="cls-1" d="M809.21,157.8H856.4l4.52,49.7h1.51c19.58-35.64,48.69-56.73,78.31-56.73,13.55,0,22.59,2,31.12,6L961.32,207c-9.54-3-16.57-4.52-27.61-4.52-22.59,0-49.7,15.56-67.27,59.24V433.9H809.21Z"/><path class="cls-1" d="M989.43,296.36c0-92.37,63.75-145.58,136.54-145.58,35.14,0,60.74,14.06,80.82,31.63l-28.61,37.65c-15.06-13.55-30.62-21.59-49.7-21.59-46.18,0-79.32,39.16-79.32,97.89,0,58.23,31.63,96.89,77.81,96.89,23.09,0,43.67-11,60.24-25.1l23.59,38.15a134.53,134.53,0,0,1-89.36,34.13C1046.66,440.43,989.43,387.72,989.43,296.36Z"/><path class="cls-1" d="M1247,360.61c0-59.24,50.2-89.86,165.16-102.41-.5-32.13-12-60.24-52.71-60.24-29.12,0-56.22,13.05-79.82,28.11L1258,186.92c28.61-18.07,67.27-36.14,111.44-36.14,68.77,0,100.4,43.67,100.4,117V433.9h-47.19l-5-31.63h-1.51c-25.1,21.59-54.72,38.15-87.85,38.15C1280.6,440.43,1247,409.31,1247,360.61Zm165.16,2V294.85c-81.83,10-109.44,30.62-109.44,61.75,0,27.11,18.57,38.15,43.17,38.15C1370,394.75,1389.54,383.2,1412.13,362.62Z"/><path class="cls-1" d="M1522.56,402.28l27.11-37.15c24.6,19.58,48.69,31.63,78.31,31.63,33.13,0,48.69-16.06,48.69-37.15,0-25.1-31.12-36.14-61.24-47.69-36.65-14.05-78.81-33.63-78.81-80.32,0-46.18,37.15-80.82,97.89-80.82,37.15,0,67.27,15.06,89.86,32.63L1697.26,219c-19.08-14.06-38.65-24.1-61.75-24.1-30.12,0-44.18,15.06-44.18,34.14,0,23.59,28.61,32.63,58.73,43.67,38.65,14.56,81.32,31.63,81.32,83.83,0,46.18-36.65,83.83-104.92,83.83C1588.33,440.43,1549.17,424.37,1522.56,402.28Z"/><path class="cls-1" d="M1790.64,343.54V204h-40.16V160.82l42.67-3,6.53-76.3h48.69v76.3h71.79V204h-71.79V344c0,33.13,11.55,50.2,40.16,50.2,9.54,0,21.59-3,29.62-6.53l10.54,42.67c-15.56,5-34.14,10-54.22,10C1812.22,440.43,1790.64,401.78,1790.64,343.54Z"/><rect class="cls-1" x="0.5" y="0.5" width="54" height="441"/><rect class="cls-1" x="378.5" y="0.5" width="54" height="441"/><polygon class="cls-2" points="0.5 0.5 189.5 432.5 243.5 432.5 432.5 0.5 378.5 0.5 216.5 373.59 54.5 0.5 0.5 0.5"/></g></g></svg>